<svg width="30" height="41" viewBox="0 0 30 41" fill="none" xmlns="http://www.w3.org/2000/svg">
<path d="M4.66934 1.1834L7.89944 0.19712C8.96549 -0.127871 10.1119 -0.0490184 11.1247 0.418967C12.1376 0.886953 12.9478 1.71211 13.4041 2.74052L15.6687 7.84083C16.0617 8.72565 16.1713 9.71292 15.982 10.664C15.7927 11.6151 15.314 12.4823 14.6131 13.1438L11.1662 16.3965C10.7043 16.8407 11.0545 18.5717 12.7421 21.534C14.4314 24.4979 15.7371 25.6699 16.3391 25.4876L20.8549 24.0892C21.7702 23.8056 22.7503 23.8193 23.6576 24.1282C24.5649 24.4371 25.354 25.0258 25.9143 25.8118L29.1328 30.3295C29.7828 31.2417 30.0838 32.3619 29.9799 33.482C29.8759 34.6021 29.374 35.6459 28.5674 36.4194L26.0794 38.8058C25.2762 39.5761 24.2857 40.1169 23.2088 40.3729C22.1318 40.629 21.0071 40.5911 19.9494 40.2632C14.7365 38.647 9.90888 33.8507 5.4014 25.9419C0.883925 18.0212 -0.82201 11.3401 0.366975 5.88177C0.606781 4.78191 1.13188 3.76673 1.88814 2.94086C2.6444 2.115 3.60445 1.50833 4.66934 1.1834Z" fill="#FA6D9C"/>
</svg>
