<?xml version="1.0" encoding="utf-8"?>
<!-- Generator: Adobe Illustrator 24.1.1, SVG Export Plug-In . SVG Version: 6.00 Build 0)  -->
<svg version="1.1" id="Слой_1" xmlns="http://www.w3.org/2000/svg" xmlns:xlink="http://www.w3.org/1999/xlink" x="0px" y="0px"
	 viewBox="0 0 260.787 48.189" style="enable-background:new 0 0 260.787 48.189;" xml:space="preserve">
<style type="text/css">
	.st0{fill:#FA6D9C;}
	.st1{fill:#88898B;}
</style>
<g>
	<path class="st0" d="M94.409,0.608c-2.559,0-4.543,2.101-4.543,4.664c0.007,2.556,1.99,4.656,4.55,4.656s4.663-2.1,4.656-4.669
		C99.072,2.698,96.976,0.608,94.409,0.608"/>
	<path class="st0" d="M74.142,6.915h-0.238c-11.305,0.007-20.392,9.108-20.386,20.406c0.02,11.194,9.111,20.274,20.414,20.26h0.238
		c11.18-0.007,20.265-9.093,20.256-20.29C94.42,16.108,85.316,7.024,74.142,6.915 M74.162,37.911
		c-5.947,0-10.842-4.774-10.848-10.716c-0.006-5.937,4.888-10.839,10.835-10.839c5.935-0.009,10.72,4.885,10.72,10.82
		C84.875,33.123,80.103,37.904,74.162,37.911"/>
	<path class="st1" d="M18.555,7.883l-1.286,0.006L0.49,7.896l0.029,38.807l16.781-0.01h0.692c0,0,16.088,0.445,16.303-19.464
		C34.295,27.229,35.795,8.69,18.555,7.883 M24.734,27.115c0.365,9.194-6.047,10.612-7.444,10.833h-0.352l-7.225,0.01L9.7,15.711
		l7.576-0.01h0.119C25.78,17.214,24.734,27.115,24.734,27.115"/>
	<rect x="38.752" y="7.872" class="st1" width="10.35" height="38.917"/>
	<rect x="104.448" y="17.202" class="st1" width="7.057" height="29.307"/>
	<path class="st1" d="M134.22,17.179l-3.936,15.071c-0.235,0.958-0.476,1.682-0.599,2.273c-0.115,0.606-0.238,1.204-0.238,1.809
		c-0.119-0.969-0.353-2.166-0.726-3.48c0-0.243-0.11-0.477-0.11-0.596l-3.963-15.07h-6.937l-4.041,29.319l6.576-0.007l1.541-12.678
		c0.121-1.081,0.244-2.155,0.359-3.236c0-1.074,0.117-2.148,0.239-3.232c0.115,1.196,0.475,2.746,0.951,4.547
		c0.13,0.357,0.13,0.71,0.252,0.84l3.48,13.759l4.78-0.007l3.466-13.759c0.122-0.128,0.122-0.482,0.242-0.843
		c0.471-1.798,0.819-3.358,0.941-4.663c0.122,1.305,0.245,2.508,0.245,3.588c0.122,1.069,0.241,2.149,0.363,2.986l1.564,12.684
		h6.573l-3.963-29.305H134.22z"/>
	<path class="st1" d="M163.654,19.314c-0.842-0.722-1.801-1.32-2.997-1.673c-0.836-0.122-2.155-0.361-3.834-0.358
		c-0.718,0-1.437-0.118-2.277-0.118h-7.409l0.019,29.319l6.703-0.009l-0.007-9.692h1.305h1.203l0.477-0.006
		c1.917,0,3.351-0.123,4.316-0.361c0.952-0.35,1.788-0.843,2.509-1.43c0.951-0.847,1.794-1.931,2.264-3.24
		c0.478-1.322,0.72-2.865,0.72-4.663c0-1.554-0.245-3.113-0.73-4.425C165.324,21.339,164.606,20.265,163.654,19.314 M158.747,29.598
		c-0.47,0.364-1.074,0.605-1.91,0.728h-1.68h-1.315v-6.815h1.437c0.592,0,1.074,0,1.551,0.112c0.832,0.122,1.441,0.358,1.917,0.714
		c0.714,0.482,0.958,1.311,0.965,2.515C159.712,28.171,159.471,29.004,158.747,29.598"/>
	<polygon class="st1" points="176.218,39.636 176.211,17.151 169.147,17.158 169.161,46.467 184.953,46.443 184.946,39.632 	"/>
	<path class="st1" d="M199.168,17.135h-4.541l-8.96,29.308l7.063-0.006l1.427-5.265h5.03h5.024l1.326,5.258l6.928-0.01
		l-8.872-29.285H199.168z M199.182,35.431l-3.594,0.007l2.631-9.569c0.123-0.604,0.364-1.203,0.479-1.92
		c0.122-0.597,0.241-1.315,0.476-2.033c0.245,1.082,0.364,1.91,0.483,2.509c0.235,0.605,0.235,1.074,0.354,1.428l2.633,9.578
		H199.182z"/>
	<path class="st1" d="M232.416,17.11l0.018,14.47v2.505c0.119,0.958,0.234,2.032,0.37,3.235c-0.483-1.304-0.962-2.388-1.445-3.235
		c-0.479-0.944-0.72-1.55-0.955-1.907l-9.823-15.068l-6.818,0.014l0.026,29.296h6.813l-0.007-14.477
		c-0.007-0.72-0.007-1.548-0.122-2.507c0-0.973-0.123-2.03-0.243-3.227c0.477,1.197,0.956,2.254,1.317,3.227
		c0.478,0.959,0.842,1.556,0.955,1.903l9.941,15.077l6.696-0.01l-0.02-29.309L232.416,17.11z"/>
	<polygon class="st1" points="260.298,17.08 241.509,17.097 241.516,24.037 247.379,24.037 247.402,46.399 254.448,46.399 
		254.428,24.023 260.298,24.023 	"/>
</g>
</svg>
